<?xml version="1.0" encoding="utf-8"?>
<!-- Generator: Adobe Illustrator 16.0.0, SVG Export Plug-In . SVG Version: 6.00 Build 0)  -->
<!DOCTYPE svg PUBLIC "-//W3C//DTD SVG 1.1//EN" "http://www.w3.org/Graphics/SVG/1.1/DTD/svg11.dtd">
<svg version="1.1" id="Layer_1" xmlns="http://www.w3.org/2000/svg" xmlns:xlink="http://www.w3.org/1999/xlink" x="0px" y="0px"
	 width="250px" height="250px" viewBox="0 0 250 250" enable-background="new 0 0 250 250" xml:space="preserve">
<g>
	<path fill="#008DB3" d="M243.162,127.115c-3.705-8.692-11.852-15.199-21.912-16.352l-38.154-4.359l-20.354-33.081
		c-5.203-8.459-14.426-13.614-24.357-13.614H72.667c-17.125,0-32.145,11.44-36.688,27.953l-0.514,1.866
		c-1.439,5.241-4.203,9.909-7.908,13.636c-3.705,3.732-8.362,6.518-13.587,7.995c-5.647,1.59-9.552,6.745-9.552,12.608v36.718
		l20.775-4.859c0.438-1.017,0.936-2.006,1.488-2.969c5.187-8.984,14.842-14.566,25.206-14.566c10.363,0,20.013,5.582,25.194,14.566
		c0.552,0.963,1.055,1.952,1.488,2.969h88.209c0.427-1.006,0.919-1.984,1.465-2.938c5.182-9.006,14.848-14.598,25.228-14.598
		c10.364,0,20.013,5.582,25.194,14.566c0.553,0.963,1.055,1.952,1.488,2.969h23.16l0.146,0.017l1.688-14.821
		c0.07-0.605,0.119-1.205,0.146-1.806C245.492,134.817,244.719,130.771,243.162,127.115z"/>
	<path fill="#CCCCCC" d="M250,162.154L250,162.154c0,3.6-2.918,6.518-6.517,6.518H222.5c0.026-0.498,0.043-1.001,0.043-1.504
		c0-3.986-0.816-7.924-2.391-11.543l23.335,0.014C247.084,155.64,250,158.557,250,162.154z"/>
	<path fill="#666666" d="M216.593,167.168c0,0.503-0.017,1.006-0.048,1.504c-0.773,12.066-10.808,21.619-23.075,21.619
		c-12.272,0-22.306-9.553-23.079-21.619c-0.033-0.498-0.049-1.001-0.049-1.504c0-4.191,1.113-8.125,3.061-11.516
		c3.992-6.939,11.483-11.613,20.067-11.613c8.567,0,16.048,4.662,20.04,11.586C215.473,159.021,216.593,162.965,216.593,167.168z
		 M202.951,167.168c0-5.23-4.251-9.487-9.481-9.487c-5.235,0-9.487,4.257-9.487,9.487s4.252,9.487,9.487,9.487
		C198.7,176.655,202.951,172.398,202.951,167.168z"/>
	<path fill="#E6E6E6" d="M193.47,157.681c5.23,0,9.481,4.257,9.481,9.487s-4.251,9.487-9.481,9.487
		c-5.235,0-9.487-4.257-9.487-9.487S188.234,157.681,193.47,157.681z"/>
	<path fill="#CCCCCC" d="M164.392,167.168c0,0.503,0.017,1.012,0.043,1.504H80.916c0.027-0.504,0.043-1.006,0.043-1.504
		c0-3.986-0.817-7.924-2.391-11.543h88.209C165.208,159.254,164.392,163.188,164.392,167.168z"/>
	<path fill="#76CDCE" d="M62.726,74.854v31.55H44.622c0,0,2.109-8.563,3.445-13.409l0.514-1.866c0.271-0.99,0.601-1.947,0.984-2.877
		C52.064,82.183,56.846,77.413,62.726,74.854z"/>
	<path fill="#76CDCE" d="M108.193,72.777v33.627H70.839V72.847c0.606-0.049,1.217-0.07,1.828-0.07H108.193L108.193,72.777z"/>
	<path fill="#76CDCE" d="M167.75,106.404h-51.444V72.777h22.079c5.35,0,10.424,2.834,13.226,7.394L167.75,106.404z"/>
	<path fill="#666666" d="M74.96,168.672c-0.773,12.066-10.807,21.619-23.074,21.619c-12.273,0-22.307-9.553-23.08-21.619
		c-0.032-0.498-0.049-1.001-0.049-1.504c0-4.203,1.12-8.146,3.078-11.543c3.997-6.924,11.478-11.586,20.051-11.586
		c8.567,0,16.048,4.662,20.04,11.586c1.963,3.396,3.083,7.34,3.083,11.543C75.009,167.671,74.993,168.174,74.96,168.672z
		 M61.374,167.168c0-5.23-4.257-9.487-9.487-9.487c-5.236,0-9.487,4.257-9.487,9.487s4.251,9.487,9.487,9.487
		C57.117,176.655,61.374,172.398,61.374,167.168z"/>
	<path fill="#E6E6E6" d="M51.886,157.681c5.23,0,9.487,4.257,9.487,9.487s-4.257,9.487-9.487,9.487
		c-5.236,0-9.487-4.257-9.487-9.487S46.65,157.681,51.886,157.681z"/>
	<path fill="#CCCCCC" d="M22.808,167.168c0,0.503,0.017,1.006,0.043,1.504H6.523c-3.603,0-6.523-2.92-6.523-6.523l0,0
		c0-3.604,2.92-6.523,6.523-6.523h18.67C23.625,159.249,22.808,163.182,22.808,167.168z"/>
	<path fill="#CCCCCC" d="M138.596,124.206h-8.524c-1.792,0-3.245-1.453-3.245-3.246s1.453-3.245,3.245-3.245h8.524
		c1.792,0,3.246,1.453,3.246,3.245S140.389,124.206,138.596,124.206z"/>
	<path fill="#CCCCCC" d="M80.061,124.206h-8.524c-1.792,0-3.245-1.453-3.245-3.246s1.453-3.245,3.245-3.245h8.524
		c1.792,0,3.246,1.453,3.246,3.245S81.853,124.206,80.061,124.206z"/>
	<path fill="#FFFFFF" d="M245.293,139.015h-6.518c-6.572,0-11.9-5.328-11.9-11.899l0,0h16.287
		C244.951,131.028,245.764,134.883,245.293,139.015z"/>
	<polygon fill="#96E0DE" points="108.193,72.847 108.193,106.404 104.391,106.404 70.839,72.847 	"/>
	<path fill="#96E0DE" d="M167.75,106.404h-17.816l-33.627-33.627h22.079c5.35,0,10.424,2.834,13.226,7.394L167.75,106.404z"/>
	<path fill="#96E0DE" d="M62.726,74.854v26.558l-13.16-13.16C52.064,82.183,56.846,77.413,62.726,74.854z"/>
</g>
</svg>
